<svg xmlns="http://www.w3.org/2000/svg" width="42.405" height="50.5" viewBox="0 0 42.405 50.5"><defs><style>.a{fill:#34495e;}.a,.j,.k{stroke:#000;stroke-miterlimit:10;stroke-width:0.5px;}.b{fill:#f39c12;}.c{fill:#23774d;}.d,.j{fill:#10ab56;}.e{fill:#fff;}.f{fill:#171316;}.g{fill:#d98012;}.h{fill:#ede329;}.i{fill:#0e1311;}.k{fill:none;}</style></defs><g transform="translate(-46.895 -29.687)"><path class="a" d="M47.721,29.936H89.608V58.988A20.944,20.944,0,0,1,68.66,79.936h.005A20.943,20.943,0,0,1,47.721,58.987Z" transform="translate(-0.558 0)"/><path class="b" d="M312.812,94.98l-.128-7.3.383-1.238-1.242-.245-.984.383a2.119,2.119,0,0,0,.542,1.1l-.086,7.281Z" transform="translate(-230.094 -49.079)"/><path class="c" d="M321.826,156.267l.3.024h-.3A.024.024,0,0,1,321.826,156.267Z" transform="translate(-239.675 -110.206)"/><path class="c" d="M325.631,156.248l.108-.031.012.031Z" transform="translate(-242.996 -110.162)"/><path class="c" d="M360.134,62.349l-.023-.092c.006-.009.014-.01.023,0Z" transform="translate(-273.075 -28.189)"/><path d="M332.84,96.67h0Z" transform="translate(-250.508 -58.657)"/><path d="M284.381,40.706v-.374l-.023-.092a1.138,1.138,0,0,0-1.338-1.149c-.244.01-.383,0-.429-.3a.992.992,0,0,0-.24-.421,2.1,2.1,0,0,0-1.64-.661c-.056,0-.112.019-.16-.05a1.173,1.173,0,0,0-.7-.453c-.766-.209-1.584-.4-2.188.272a1.718,1.718,0,0,1-1.149.567c-.56.086-1.224.226-1.316.924-.068.519-.285.6-.693.7a1.482,1.482,0,0,0-1.224,1.264,1.659,1.659,0,0,0,.835,1.638l.23.107a1.737,1.737,0,0,0,1.082,2.042,3.56,3.56,0,0,1,.766.186,2.82,2.82,0,0,0,1.384.345.746.746,0,0,1,.777.854c-.02.581-.054,1.16-.08,1.74l.008.014h-.009q-.094,1.922-.186,3.846c-.013.277.087.47.383.488.333.022.669.028,1,.04l.3.024h.181l.109-.031c.317-.1.19-.327.163-.542a61.509,61.509,0,0,1-.22-6.585,2.21,2.21,0,0,0,.968.056c.728-.091,1.432-.223,1.775-1.021.015-.034.071-.05.11-.071.865-.5,1.31-1.1.915-2.1a.084.084,0,0,1,.015-.108A2,2,0,0,0,284.381,40.706Zm-6.254-3.042a2.267,2.267,0,0,1,1.931.248.535.535,0,0,1,.212.528c-.009.092-.073.1-.144.052a1.949,1.949,0,0,0-2.365.212,1.35,1.35,0,0,0-.017-.191c-.1-.371-.092-.7.379-.849Zm-.308,2.448a.224.224,0,0,0,.027-.186c-.191-.66.015-1,.68-1.149a2.285,2.285,0,0,1,1.459.1c.416.19.355.582.3.95-.013.082-.02.144.06.18s.094-.045.128-.091a.892.892,0,0,0,.07-.893.54.54,0,0,1,.156-.6.638.638,0,0,1,.569-.137c.328.064.475.4.747.511.383.153.3.433.3.738,0,.37-.194.4-.456.383s-.5-.017-.751-.02c-.057,0-.149-.027-.147.078,0,.082.073.1.144.1a1.076,1.076,0,0,1,.957.518.8.8,0,0,1,.139.9.893.893,0,0,1-.924.5,1.156,1.156,0,0,1-.638-.116c-.228-.07-.245.075-.269.237a1.021,1.021,0,0,1-.964.864,2.341,2.341,0,0,1-.976-.147.465.465,0,0,1-.318-.444c-.014-.117-.052-.255-.2-.216s-.147.183-.121.3a1.394,1.394,0,0,0,.6.766c.055.043.19.068.157.128a.434.434,0,0,1-.268.186,1.153,1.153,0,0,1-1.183-.236.878.878,0,0,1-.16-1.105c.1-.147.024-.2-.106-.234-.286-.064-.588-.093-.712-.443a1.2,1.2,0,0,1,.171-1.222,1.141,1.141,0,0,1,1.34-.2.191.191,0,0,0,.183-.005Zm-4,1.063c0-.693.294-.969,1.122-1.1A3.051,3.051,0,0,1,275.68,40c.255.023.071-.213.042-.282a.841.841,0,0,1,.747-1.2c.255,0,.511-.015.758-.024a.393.393,0,0,1,.383.535,1.239,1.239,0,0,0-.091.394c.008.332-.2.245-.365.246-1.149.014-1.482.486-1.393,1.575a.906.906,0,0,0,.144.476c.033.047.042.108-.009.138a2.514,2.514,0,0,1-.854.445c-.688.1-1.211-.271-1.225-1.135Zm2.611,2.936a1.478,1.478,0,0,1-1.5-.4.923.923,0,0,1-.11-.574c-.111-.439.264-.528.572-.647.134-.051.3-.091.361-.2.189-.331.43-.255.684-.139.165.075.22.181.114.375a.832.832,0,0,0,.055.9.451.451,0,0,1-.175.692Zm1.132.669c-.216-.087-.53.046-.776-.208-.091-.094-.041-.147-.017-.2.128-.271.255-.553.628-.457.322.083.675.152.654.606-.018.271-.242.267-.493.267Zm2.186-.752a.98.98,0,0,0-.112.226,1.67,1.67,0,0,0-.027.2c-.014.117-.032.236-.042.355-.015.167-.027.333-.034.5-.015.334-.019.669-.018,1s.009.669.014,1c0,.255.008.5,0,.748,0,.893.111,1.795.137,2.694.01.351.022.707.043,1.059a.128.128,0,0,1-.144.157c-.262,0-.523.013-.785.017a.1.1,0,0,1-.034,0,.092.092,0,0,1-.032-.027.415.415,0,0,1-.083-.239,2.084,2.084,0,0,1-.022-.309,7.081,7.081,0,0,1,.077-.752c.028-.265.02-.534.023-.8,0-.491.032-.984.038-1.476,0-.429.012-.858.017-1.287V46.73c0-.14,0-.281-.006-.421,0-.221-.008-.44,0-.66,0-.134.014-.267.013-.4a.211.211,0,0,0-.008-.063.187.187,0,0,0-.019-.043,1.763,1.763,0,0,1-.1-.255l-.013-.038a3.213,3.213,0,0,0-.128-.3c-.05-.112-.1-.226-.147-.341a.213.213,0,0,0-.114-.128.1.1,0,0,1-.077-.119.143.143,0,0,1,.063-.094.226.226,0,0,1,.106-.038.128.128,0,0,1,.048,0c.059.017.115.108.149.157a1.2,1.2,0,0,1,.128.237,1.033,1.033,0,0,1,.04.1c.01.034.009.061.042.073.064.022.172.037.176-.063a.319.319,0,0,0-.023-.1c-.024-.088-.057-.72.121-.676h.011a.159.159,0,0,1,.092.163c-.01.185,0,.374,0,.56,0,.027,0,.061.027.073a.074.074,0,0,0,.029,0,.51.51,0,0,0,.153,0,.128.128,0,0,0,.061-.094,2.423,2.423,0,0,1,.112-.383c.015-.1.032-.216.146-.236a.244.244,0,0,1,.175.05.067.067,0,0,1,.022.024.064.064,0,0,1,0,.041,1.057,1.057,0,0,1-.1.265Zm.011-.6c-.01,0-.037-.055-.038-.086,0-.065.049-.075.1-.094a1.165,1.165,0,0,0,.837-.893c.032-.157.186-.128.294-.079a1.321,1.321,0,0,0,.689.1c.064-.008.128-.046.177.023a.282.282,0,0,1,.015.236c-.138.638-.893.9-1.473.933-.206.04-.38-.165-.6-.137Zm2.583.359a1.617,1.617,0,0,1-1.38.925c-.216.033-.536-.077-.865-.078a.149.149,0,0,1-.094-.07c-.1-.17.175-.684.365-.691a1.767,1.767,0,0,0,1.276-.375,1.177,1.177,0,0,0,.1-.087c.086-.107.128-.286.318-.222a.458.458,0,0,1,.272.6Zm.638-.324c-.383.407-.334-.08-.419-.179a1.9,1.9,0,0,0-.4-.448c-.1-.061-.086-.148-.009-.23.026-.027.069-.068.063-.088-.119-.371.128-.587.323-.825.052-.064.1-.128.2-.091a.836.836,0,0,1,.687.974,1.185,1.185,0,0,1-.452.891Zm.68-1.952c-.042.079-.094.059-.151.027a6.086,6.086,0,0,0-.7-.377.3.3,0,0,1-.2-.306c-.009-.255-.269-.434-.2-.688a.577.577,0,0,1,.739-.475c.368.063.832.471.813.837a2.077,2.077,0,0,1-.309.987Z" transform="translate(-197.322 -6.172)"/><path class="c" d="M312.482,121.867l.008.014h-.009v-.009Z" transform="translate(-231.525 -80.197)"/><path class="d" d="M300.115,50.63a1.155,1.155,0,0,1-.638-.116c-.228-.07-.245.075-.269.237a1.021,1.021,0,0,1-.964.864,2.341,2.341,0,0,1-.976-.147.465.465,0,0,1-.318-.444c-.014-.117-.052-.255-.2-.216s-.147.183-.121.3a1.393,1.393,0,0,0,.6.766c.055.043.19.068.157.128a.434.434,0,0,1-.268.186,1.153,1.153,0,0,1-1.183-.236.878.878,0,0,1-.16-1.105c.1-.147.024-.2-.106-.234-.286-.063-.588-.093-.712-.443a1.2,1.2,0,0,1,.171-1.222,1.141,1.141,0,0,1,1.34-.2.191.191,0,0,0,.177,0,.224.224,0,0,0,.027-.186c-.191-.66.015-1,.68-1.149a2.285,2.285,0,0,1,1.459.1c.416.19.355.582.3.95-.013.082-.02.144.06.18s.094-.045.128-.091a.891.891,0,0,0,.07-.893.54.54,0,0,1,.165-.6.638.638,0,0,1,.569-.137c.328.064.475.4.747.511.383.153.3.433.3.738,0,.37-.194.4-.456.383s-.5-.017-.751-.02c-.057,0-.149-.027-.147.078,0,.082.073.1.144.1a1.076,1.076,0,0,1,.957.518.8.8,0,0,1,.139.9A.893.893,0,0,1,300.115,50.63Z" transform="translate(-216.159 -14.8)"/><path class="d" d="M277.531,51.349c0-.693.294-.969,1.122-1.1a3.05,3.05,0,0,1,.736-.077c.255.023.071-.213.042-.282a.841.841,0,0,1,.747-1.2c.255,0,.511-.015.758-.024a.393.393,0,0,1,.383.535,1.24,1.24,0,0,0-.091.394c.008.332-.2.245-.365.246-1.149.014-1.482.486-1.393,1.575a.906.906,0,0,0,.144.476c.033.047.042.108-.009.138a2.514,2.514,0,0,1-.854.445C278.068,52.58,277.545,52.214,277.531,51.349Z" transform="translate(-201.036 -16.346)"/><path class="d" d="M285.2,77.606c-.111-.439.264-.528.572-.647.134-.051.3-.091.361-.2.189-.331.43-.255.684-.139.165.075.22.181.114.375a.832.832,0,0,0,.055.9.451.451,0,0,1-.171.687,1.478,1.478,0,0,1-1.5-.4A.922.922,0,0,1,285.2,77.606Z" transform="translate(-207.713 -40.64)"/><path class="d" d="M346.326,58.769a2.016,2.016,0,0,1-.3.987c-.042.079-.094.059-.151.027a6.085,6.085,0,0,0-.693-.382.3.3,0,0,1-.2-.306c-.009-.255-.269-.434-.2-.688a.577.577,0,0,1,.739-.475C345.88,58,346.346,58.4,346.326,58.769Z" transform="translate(-259.69 -24.409)"/><path class="d" d="M326.8,86.908c-.216.033-.536-.077-.865-.078a.149.149,0,0,1-.094-.07c-.1-.17.175-.684.365-.691a1.767,1.767,0,0,0,1.276-.375,1.183,1.183,0,0,0,.1-.087c.086-.107.128-.286.318-.222a.452.452,0,0,1,.271.6A1.613,1.613,0,0,1,326.8,86.908Z" transform="translate(-243.163 -48.359)"/><path class="d" d="M343.611,73.946a1.14,1.14,0,0,1-.442.886c-.383.407-.334-.08-.419-.179-.128-.151-.212-.355-.4-.448-.107-.052-.079-.135-.037-.213.055-.1,0-.234.027-.348a.953.953,0,0,1,.165-.291,3.216,3.216,0,0,1,.222-.29c.052-.064.1-.128.2-.091A.836.836,0,0,1,343.611,73.946Z" transform="translate(-257.517 -37.533)"/><path class="d" d="M307.978,42.4a1.355,1.355,0,0,0-.017-.191c-.1-.371-.087-.7.383-.848a2.262,2.262,0,0,1,1.931.246.535.535,0,0,1,.212.528c-.009.092-.073.1-.144.052A1.949,1.949,0,0,0,307.978,42.4Z" transform="translate(-227.54 -9.868)"/><path class="d" d="M324.419,79.341c-.2.04-.377-.165-.6-.137-.01,0-.037-.055-.038-.086,0-.065.048-.075.1-.094a1.165,1.165,0,0,0,.837-.893c.032-.157.186-.128.294-.079a1.321,1.321,0,0,0,.689.1c.064-.008.128-.046.177.023a.282.282,0,0,1,.015.236C325.754,79.053,325,79.313,324.419,79.341Z" transform="translate(-241.382 -41.941)"/><path class="d" d="M301.2,91.854c-.216-.087-.53.046-.776-.208-.091-.094-.041-.147-.017-.2.128-.271.255-.553.628-.457.322.083.675.152.654.606C301.675,91.858,301.45,91.854,301.2,91.854Z" transform="translate(-220.961 -53.241)"/><path class="c" d="M315.861,134.827q0,.456-.01.91C315.854,135.429,315.857,135.131,315.861,134.827Z" transform="translate(-234.465 -91.502)"/><path class="c" d="M315.757,142.687c0,.073,0,.146-.006.218C315.754,142.833,315.755,142.76,315.757,142.687Z" transform="translate(-234.377 -98.359)"/><path class="c" d="M322.851,94.274l.027-.237Z" transform="translate(-240.571 -55.918)"/><path class="c" d="M316.347,113.167v.217C316.346,113.311,316.347,113.238,316.347,113.167Z" transform="translate(-234.897 -72.607)"/><path class="c" d="M323.4,93h0Z" transform="translate(-241.042 -55.011)"/><path class="c" d="M332.814,96.654h0l0,0Z" transform="translate(-250.482 -58.639)"/><path class="c" d="M330.583,97.808l0-.008h.006l.005.009Z" transform="translate(-248.536 -59.642)"/><path class="c" d="M323.569,92.631l-.008-.006.014-.008v.01Z" transform="translate(-241.19 -54.68)"/><path class="c" d="M315.1,98.116l.02.023Z" transform="translate(-233.81 -59.478)"/><path class="e" d="M169.239,45.685l-1.116-.079-.693-.531-.6-.622c-.027-.443.156-.9.376-.989l.183.308.115.571.3.231c.246-.373.5-.824.666-.768l.348.487.255.01.683-.812a1.985,1.985,0,0,1,.936-.818l.724-.1-.149.3-.662.346-.383.511c.031.112.207.1.26.2a1.454,1.454,0,0,0,.415.023c.01-.031.469-.488.469-.488l.658-.434s.024.266.348.184a13.031,13.031,0,0,0,1.364-.619c.691-.264.661.007.661.007-.5.28-1,.559-1.058.831l.021.286,1.862-.291.411.075-.42.412.036.318.8.049.009.242-.523.232-.217.3.652.174.5-.053-.167.227-.241.045-.407.163-1.412-.393-.7.007-1.046-.1-.626.056-1.56.275-.5.551Z" transform="translate(-104.465 -10.941)"/><path class="e" d="M135.972,146.582l.845-.065-.038.536-.462.581a1.854,1.854,0,0,1-.383.036c-.02-.026-.093-.724-.093-.724Z" transform="translate(-77.431 -101.7)"/><path class="e" d="M148.651,160.282l.845-.065-.038.535-.462.582a1.774,1.774,0,0,1-.383.034c-.019-.024-.092-.722-.092-.722Z" transform="translate(-88.492 -113.652)"/><path class="e" d="M271.5,166.118l.25-.928.74,1.016" transform="translate(-196.997 -118.431)"/><path class="e" d="M287.481,156.11l-.328.394-.327.023-.5-.97.285-.637.837.7Z" transform="translate(-209.934 -109.472)"/><path class="f" d="M151.143,58.066a.233.233,0,0,1-.068-.032.851.851,0,0,1-.35-.481,2.2,2.2,0,0,0-.317-.625,3.743,3.743,0,0,1-.578-2.1,2.092,2.092,0,0,0-.161-.745.882.882,0,0,0-.527-.54,5.07,5.07,0,0,1-1.553-1.084c-.184-.163-.36-.337-.534-.511a.724.724,0,0,0-1.071-.092,4.533,4.533,0,0,1-1.846.684,10.035,10.035,0,0,1-2.213.128,3.191,3.191,0,0,0-1.368.351,8.552,8.552,0,0,0-2,1.149,2,2,0,0,0-.4.488c-.2.308-.361.638-.564.947a2.151,2.151,0,0,0-.207,1.16,1,1,0,0,1-.748.911.362.362,0,0,1-.511-.315,1.107,1.107,0,0,1,.033-.574,7.921,7.921,0,0,1,.725-1.962,3.663,3.663,0,0,0,.511-1.232,1.342,1.342,0,0,1,.736-.812c.078-.046.163-.082.128-.2a.2.2,0,0,0-.221-.157,1.045,1.045,0,0,0-.615.128,1.419,1.419,0,0,1-.6.217.766.766,0,0,0-.546.369c-.181.282-.36.565-.539.849a.693.693,0,0,0,0,.716.678.678,0,0,1-.128.8.746.746,0,0,1-.826.333.429.429,0,0,1-.281-.268v-.2a12.611,12.611,0,0,0,.337-1.317,2.811,2.811,0,0,0,.063-.4,1.17,1.17,0,0,1,.439-.738,2.234,2.234,0,0,0,.439-.5,3.122,3.122,0,0,1,.919-.856,16.21,16.21,0,0,1,1.447-.876c.056-.031.107-.05.094-.147a4.072,4.072,0,0,1,1.056-3.261c.2-.236.213-.383-.014-.457-.148-.054-.232.111-.338.185a.766.766,0,0,1-.415.186.309.309,0,0,1-.322-.222,4.391,4.391,0,0,0-.262-.56.605.605,0,0,1,.163-.873,10.758,10.758,0,0,0,.978-.776.934.934,0,0,0,.29-.638c.006-.089-.011-.128-.106-.128-.572-.047-.925-.856-.826-1.276a.862.862,0,0,1,.728-.661.128.128,0,0,1,.151.128,1.434,1.434,0,0,1-.024.286.412.412,0,0,0,.1.439c.08.063.17.181.276-.022a1.381,1.381,0,0,1,.848-.638.16.16,0,0,1,.183.033c.054.068.015.139-.017.2s-.065.1-.094.16-.135.128-.038.191a.176.176,0,0,0,.262-.031c.2-.265.4-.536.61-.791a2.426,2.426,0,0,1,1.671-.8.306.306,0,0,1,.348.193c.061.176-.087.255-.2.336a.917.917,0,0,1-.285.11,1.2,1.2,0,0,0-.675.485.168.168,0,0,0-.04.186c.04.073.115.057.177.049a.526.526,0,0,0,.34-.171c.369-.423,1.164-.77,1.287-.625.065.077-.057.215.026.208.156-.012.331-.254.513-.317.308-.125.385-.212.633-.3a3.885,3.885,0,0,1,.738-.255.5.5,0,0,1,.262.02.2.2,0,0,1,.069.36,2.12,2.12,0,0,1-.65.359c-.176.069-.521.283-.447.5.061.183.414-.033.564-.076a4,4,0,0,1,1.622-.178.4.4,0,0,1,.135.028c.115.054.282.078.28.241s-.473.2-.583.245a.216.216,0,0,0-.1.341c.128.114.64-.019.786.038.12.051.308.06.309.222s-.134.166-.254.222a1.858,1.858,0,0,1-.471.129c-.064.017-.246.152-.243.212,0,.088.149.12.279.156.273,0,.632-.057.785-.064.064,0,.151.008.174.093s-.065.12-.12.153a1.932,1.932,0,0,1-2.044.1,1.145,1.145,0,0,0-.719-.14,2.157,2.157,0,0,1-.793-.009,2.1,2.1,0,0,0-.934-.062c-.088,0-.19.179-.163.246a.429.429,0,0,1-.05.5,2.425,2.425,0,0,1-.494.325.23.23,0,0,0-.106.365,1.848,1.848,0,0,1,.138,1.049,6.306,6.306,0,0,1-.208,1.435c-.06.2.042.291.208.34a2.587,2.587,0,0,0,.8.078,11.461,11.461,0,0,0,3.2-.511,5.393,5.393,0,0,1,2-.135,6.382,6.382,0,0,1,2.236.521,4.026,4.026,0,0,1,.9.546c.1.078.193.179.135.32a.308.308,0,0,1-.308.181,1.991,1.991,0,0,0-1.243.525.119.119,0,0,0-.045.128c.089.614.107,1.236.149,1.855,0,.063,0,.114.074.152a2.594,2.594,0,0,1,1.149,1.421,6.66,6.66,0,0,1,.548,1.484c0,.029.045.057.071.082.278.243.563.479.836.728a.74.74,0,0,1-.038,1.177c-.417.334-.591.3-.814-.2a2.788,2.788,0,0,0-.7-.943,1.946,1.946,0,0,1-.511-.933c-.088-.3-.347-.471-.521-.706-.024-.033-.045-.014-.06.087a3.447,3.447,0,0,0,0,1.352,1.238,1.238,0,0,1,.023.417.8.8,0,0,0,.416.791.661.661,0,0,1,.285.812,1.238,1.238,0,0,1-.186.4.728.728,0,0,1-.162.157.389.389,0,0,1-.246.043.349.349,0,0,1-.045-.008Zm2.324-1.943a.038.038,0,0,1-.006.017.046.046,0,0,0,0,.045c.01.013.026.019.036.031a.148.148,0,0,1,.028.071c.008.024.022.052.046.056a.04.04,0,0,0,.041-.022.043.043,0,0,0-.008-.046c0-.006-.015-.011-.018-.019a.031.031,0,0,1,0-.015.208.208,0,0,1,.02-.1.108.108,0,0,0,.015-.029.126.126,0,0,0-.017-.052.4.4,0,0,1-.028-.116.147.147,0,0,0-.056-.1c-.05-.032-.109,0-.152.031l-.041.029c-.031.024-.089.037-.115,0-.038-.061.034-.06.06-.086.052-.056.121-.134,0-.171a1.981,1.981,0,0,1-.234-.115c-.065-.068-.117-.16-.2-.2a.753.753,0,0,1-.4-.574.766.766,0,0,0-.146-.406,3.341,3.341,0,0,1-.494-1.149.983.983,0,0,0-.343-.511,3.573,3.573,0,0,1-.614-.486,1.106,1.106,0,0,1-.412-.909,10.335,10.335,0,0,0,0-1.391,2.019,2.019,0,0,0-.106-.645,1.414,1.414,0,0,0-.44-.528c-.063-.055-.182-.092-.119-.208s.148-.032.223,0a.809.809,0,0,1,.1.049,7.17,7.17,0,0,0,.749.488.822.822,0,0,0,.715-.1h-.006c-.013-.177-.181-.11-.264-.18a2.31,2.31,0,0,0-1.073-.5c-.523-.1-1.05-.117-1.576-.17a8.887,8.887,0,0,0-1.915.234c-.42.049-.831.181-1.253.227a4.437,4.437,0,0,1-1.427.1.128.128,0,0,0-.082.008c-.291.154-.569-.022-.842-.061-.22-.033-.264.042-.3.207a.764.764,0,0,1-.255.5,2.826,2.826,0,0,0-.42.443,1.163,1.163,0,0,1-.489.366.392.392,0,0,0-.272.278.728.728,0,0,0-.02.2c-.01.119-.064.166-.179.12a.59.59,0,0,0-.756.355c-.06.246-.183.2-.336.149a.3.3,0,0,0-.294.049c-.181.12-.244.315-.361.475a6.58,6.58,0,0,1-.717.946,2.407,2.407,0,0,1-.472.431c-.181.092-.274.287-.453.375-.027.013-.037.074-.046.115a5.114,5.114,0,0,1-.444,1.162c-.068.139-.246.174-.3.306a1.638,1.638,0,0,0-.223.766c0,.061-.051.11-.082.163a1.562,1.562,0,0,0-.158.55,1.226,1.226,0,0,1-.031.206.394.394,0,0,0-.023.054.267.267,0,0,0,.015.151.023.023,0,0,0,.008.011c.006,0,.015,0,.019-.009s0-.015.008-.023a.049.049,0,0,1,.052-.014.2.2,0,0,1,.158.12.109.109,0,0,1,0,.041c0,.031-.026.063,0,.088a.038.038,0,0,0,.041.01.056.056,0,0,0,.032-.047c.147-.2.426-.323.3-.654.011-.128-.147-.162-.144-.31a.812.812,0,0,1,.308-.67c.065-.051.156-.106.166-.2a3.459,3.459,0,0,1,.67-1.333.264.264,0,0,1,.225-.151.114.114,0,0,0,.1-.087,1.023,1.023,0,0,1,.615-.511c.328-.161.684-.255,1.013-.4a4.936,4.936,0,0,0,1.246-.638c.191-.157.511-.163.568-.493a.119.119,0,0,1,.167-.059c.063.037.032.106.017.158a.443.443,0,0,1-.191.221c-.108.078-.1.2.008.239a.511.511,0,0,0,.383.019,2.28,2.28,0,0,1,.651-.128,6.333,6.333,0,0,0,1.021-.184,10.439,10.439,0,0,0,1.69-.73,1.2,1.2,0,0,1,.351-.16,5.309,5.309,0,0,0,.766-.177,1.726,1.726,0,0,1,1.252.271c.207.1.3.35.488.461.43.249.807.586,1.251.814a2.852,2.852,0,0,0,1.033.451.255.255,0,0,1,.138.063,3.5,3.5,0,0,1,.474.544,2.6,2.6,0,0,1,.489.711,2.74,2.74,0,0,0,.578,1.073,1.819,1.819,0,0,1,.324.465c.047.089.093.177.147.262a1.956,1.956,0,0,1,.1.191,2.018,2.018,0,0,0,.086.184.317.317,0,0,0,.056.079c.033.029.1.056.14.026a.08.08,0,0,0,.022-.029.221.221,0,0,0,0-.209.2.2,0,0,1-.018-.027.271.271,0,0,1,0-.111.05.05,0,0,1,.008-.033.04.04,0,0,1,.023-.014l.042-.015a.04.04,0,0,1,.024,0,.051.051,0,0,1,.019.013.268.268,0,0,1,.031.036l.008,0ZM145.61,42.588c-.045.04-.606.384-.646.429a1.887,1.887,0,0,1-.346.157,3.065,3.065,0,0,1-.481.166.7.7,0,0,1-.277.023l-.493-.074c-.088,0-.1-.039-.176-.072a.2.2,0,0,1-.089-.154.332.332,0,0,1,.022-.206,2.576,2.576,0,0,1,.451-.545c.1-.08.326-.351.25-.369-.06-.018-.111-.006-.2.052a2.7,2.7,0,0,0-.75.678c-.01.024-.26.256-.276.277a.216.216,0,0,1-.052.043,3.419,3.419,0,0,1-.822.486,8.41,8.41,0,0,1-.891.327.582.582,0,0,1-.664-.286.678.678,0,0,1,.01-.636c.029-.053.106-.145.1-.173s-.064-.026-.086-.017a1.455,1.455,0,0,0-.243.225.652.652,0,0,0-.076.553,1.628,1.628,0,0,0,.306.564.268.268,0,0,0,.162.128.729.729,0,0,0,.784-.186c.034-.037.08-.106.139-.056s0,.116-.031.163c-.082.128-.088.22.06.286-.029.054,0,.151-.1.148a2.135,2.135,0,0,1-1.067-.11c-.218-.128-.534.1-.605.345a1.251,1.251,0,0,1-.6.793,1.732,1.732,0,0,0-.594.6.114.114,0,0,0,0,.148c.019.022.056.047.079.042.054-.013.066-.069.066-.116a.244.244,0,0,1,.128-.208c.033-.022.058.025.083.054.067.088,0,.163-.019.24-.006.027-.034.046-.045.073-.02.059-.091.117-.032.184a.156.156,0,0,0,.207.02,1.436,1.436,0,0,1,.549-.181c.278-.051.546-.142.828-.177a1.156,1.156,0,0,0,.675-.236c.171-.168.424-.383.359-.722-.008-.037,0-.1.059-.1a.088.088,0,0,1,.091.077.66.66,0,0,1,.015.412,1.186,1.186,0,0,1-.662.706c-.322.1-.528.2-.638.54-.087.324-.4.5-.6.752a1.7,1.7,0,0,1-.17.245,3.558,3.558,0,0,0-.482.721,1.752,1.752,0,0,0-.153.534,2.49,2.49,0,0,0,.079,1.432c.088.263.328.416.461.651.031.055.154.144.217.017a1.191,1.191,0,0,1,.463-.454c.109-.071.162-.027.194.083.008.031,0,.079.043.079a.1.1,0,0,0,.078-.049c.138-.331.482-.419.7-.65a.128.128,0,0,1,.117-.022c.165.1.216-.064.3-.142.028-.027.051-.06.083-.088a2.716,2.716,0,0,0,.52-.448,1.573,1.573,0,0,1,.255-.271,1.193,1.193,0,0,0,.422-.655c.02-.094.034-.2-.056-.248s-.171,0-.24.068l-.44.422c-.036.032-.077.064-.128.023a.1.1,0,0,1-.018-.128.383.383,0,0,1,.086-.128,4.113,4.113,0,0,0,.8-1.139,1.7,1.7,0,0,0,.18-.733,6.371,6.371,0,0,0,0-1c0-.189-.128-.313-.167-.481-.011-.056-.083-.087-.149-.088a1.01,1.01,0,0,1-.537-.18c-.061-.038-.189-.08-.154-.128.077-.107.045-.255.177-.342a3.068,3.068,0,0,1,.989-.271c.054-.014.128,0,.121-.083s-.079-.084-.128-.073a4.566,4.566,0,0,0-.766.151c-.172.07-.346.209-.551.092-.006-.088-.019-.185.048-.246a1.354,1.354,0,0,1,.9-.393c.493-.008.988.013,1.481-.008a3.112,3.112,0,0,1,1,.071,1.631,1.631,0,0,0,.784.032.74.74,0,0,1,.543.109,1.491,1.491,0,0,0,1.509.2c.133-.06.277-.093.224-.122a3.935,3.935,0,0,0-.582.054c-.4-.045-.373-.042-.578-.176a.288.288,0,0,1-.091-.217c0-.073.291-.254.363-.269.231-.079.321-.037.547-.128a.091.091,0,0,0,.051-.057.071.071,0,0,0-.061-.068,1.5,1.5,0,0,0-.978.209,1.69,1.69,0,0,1-1.249.119c-.122,0-.164-.077-.193-.2-.023-.158.608-.547,1.082-.7.294-.126.826-.133.853-.22.02-.065-.557-.077-.747-.036A4.475,4.475,0,0,0,145.61,42.588Zm-.438-.748c.269-.2.538-.183.977-.483.023-.115-.116-.051-.2-.038a4.215,4.215,0,0,0-.56.186c-.128.043-.368.186-.483.24-.231.152-.3.163-.559.343a1.478,1.478,0,0,0-.774.63c-.052.078-.006.279.083.3a1.752,1.752,0,0,0,.806-.085c.108-.028.421-.093.354-.245a.554.554,0,0,1,0-.412A1.362,1.362,0,0,1,145.172,41.84Zm-4.629,1.7a.346.346,0,0,0,.2.056,1.569,1.569,0,0,0,.413-.123c.223-.1.3-.11.5-.211.041-.019.158-.083.239-.127s.149-.083.237-.133a.891.891,0,0,0,.144-.1c.027-.044-.08-.013-.146-.04a.2.2,0,0,1-.114-.087.217.217,0,0,1-.029-.091.328.328,0,0,1,0-.168,1.85,1.85,0,0,1,.121-.293,1.131,1.131,0,0,1,.313-.355c.049-.026.1-.038.152-.061a1.907,1.907,0,0,0,.325-.184c.116-.1.3-.211-.032-.154a2.446,2.446,0,0,0-.822.319,2.606,2.606,0,0,0-.408.433l-.252.374a3.474,3.474,0,0,1-.462.5.477.477,0,0,1-.3.146.214.214,0,0,0-.128.031c-.068.054-.042.163.006.221a.256.256,0,0,0,.047.05Zm-5.52,11.546c.042,0,.094-.028.12.037a.194.194,0,0,1-.037.2c-.031.041-.077.088-.046.142s.091.019.139.008a.574.574,0,0,0,.245-.785.736.736,0,0,1-.11-.406c-.01-.177.139-.241.2-.368a5.242,5.242,0,0,1,.276-.734,1.4,1.4,0,0,1,.392-.359c.237-.175.374-.494.714-.522.017,0,.032-.019.046-.032a1.337,1.337,0,0,1,.849-.327c.3-.041.6-.034.9-.047.166-.008.383-.207.37-.347a.886.886,0,0,0-.5-.474c-.374-.009-.631.263-.911.448-.336.22-.618.53-1.059.511a.315.315,0,0,0-.255.156c-.273.4-.683.676-.961,1.075a.226.226,0,0,1-.075.064.48.48,0,0,0-.248.451,2.5,2.5,0,0,1-.061.4c-.077.351-.128.707-.191,1.062,0,.029-.017.078.027.084a.12.12,0,0,0,.077-.046.786.786,0,0,0,.054-.128ZM151.03,56.7a.6.6,0,0,1-.262-.836.24.24,0,0,0,.027-.231,2.042,2.042,0,0,1-.128-.812c.014-.458.038-.918.06-1.376,0-.114-.013-.225-.128-.255-.3-.086-.546-.288-.854-.361a1.675,1.675,0,0,1-.691-.463,9.083,9.083,0,0,1-.893-.692,1.276,1.276,0,0,0-1.211-.465c-.055.009-.117,0-.128.079s.05.116.109.128c.433.082.673.475,1.021.7s.56.678,1.021.827c.264.086.494.306.775.4a.3.3,0,0,1,.214.2,4.619,4.619,0,0,1,.263,1.433,3.206,3.206,0,0,0,.511,1.961c.038.052.054.137.135.148.028.092.05.185.084.273.019.051.057.128.12.08a.137.137,0,0,1,.207.015.051.051,0,0,0,.082-.023.493.493,0,0,0-.029-.451C151.264,56.847,151.218,56.686,151.03,56.7ZM138.741,42.855a1.179,1.179,0,0,0,.685.89c.112.048.139.086.192.029.075-.082-.033-.189-.109-.284a.312.312,0,0,0-.052-.056.961.961,0,0,1-.464-.738c.009-.213.067-.329.008-.324a.612.612,0,0,0-.26.484Zm3.62,2.049c.416.009.716-.265,1.07-.383.064-.02.051-.087.009-.128s-.089-.083-.135-.008a.255.255,0,0,1-.181.119c-.268.051-.536.1-.8.165-.086.02-.237.07-.218.128C142.134,44.906,142.283,44.878,142.361,44.9Zm3.763-1.595c.183-.016.2-.005.331-.123.2-.211.379-.3.366-.33-.014-.049-.117-.021-.156-.017a1.275,1.275,0,0,0-.4.119c-.086.028-.461.187-.456.274S146.091,43.294,146.124,43.309Z" transform="translate(-76.262 -9.729)"/><path class="g" d="M268.171,102.737Z" transform="translate(-192.87 -63.508)"/><path class="b" d="M166.974,103.482c-.065-.068-.115-.162-.193-.2a.753.753,0,0,1-.4-.574.766.766,0,0,0-.146-.406,3.341,3.341,0,0,1-.494-1.149.983.983,0,0,0-.343-.511,3.573,3.573,0,0,1-.614-.486,1.1,1.1,0,0,1-.415-.906,10.33,10.33,0,0,0,0-1.391,2.019,2.019,0,0,0-.106-.645,1.414,1.414,0,0,0-.44-.528c-.063-.055-.183-.092-.119-.208s.148-.032.223,0a.81.81,0,0,1,.1.048,7.167,7.167,0,0,0,.749.488.8.8,0,0,0,.714-.1c-.014-.176-.181-.108-.264-.179a2.31,2.31,0,0,0-1.073-.5c-.523-.1-1.05-.117-1.576-.17a8.889,8.889,0,0,0-1.915.23c-.42.049-.831.181-1.253.226a4.435,4.435,0,0,1-1.426.1.152.152,0,0,0-.089.008c-.291.154-.562-.022-.835-.061-.224-.037-.273.039-.313.2a.769.769,0,0,1-.254.5,2.822,2.822,0,0,0-.421.441,1.136,1.136,0,0,1-.482.364.394.394,0,0,0-.276.276.757.757,0,0,0-.02.2c-.018.117-.06.163-.171.12a.6.6,0,0,0-.765.351c-.06.246-.173.208-.327.154a.3.3,0,0,0-.3.049c-.181.12-.245.312-.362.472a6.55,6.55,0,0,1-.715.944,2.378,2.378,0,0,1-.469.429c-.181.092-.28.292-.459.38-.027.013-.039.076-.048.117a5.073,5.073,0,0,1-.441,1.157c-.068.139-.248.174-.3.306a1.653,1.653,0,0,0-.223.77c0,.061-.049.1-.08.158a1.6,1.6,0,0,0-.161.556c.142-.026.3.113.421-.072a.1.1,0,0,0,.16.005c.011-.128-.143-.164-.141-.312a.817.817,0,0,1,.318-.668c.065-.052.156-.106.166-.2a3.459,3.459,0,0,1,.67-1.333.264.264,0,0,1,.225-.151.114.114,0,0,0,.1-.087,1.023,1.023,0,0,1,.615-.511c.328-.161.684-.255,1.013-.4a4.937,4.937,0,0,0,1.246-.638c.191-.157.511-.163.568-.493a.1.1,0,0,1,.152-.053c.063.037.033.1.017.153a.443.443,0,0,1-.191.221c-.108.078-.1.2.008.239a.523.523,0,0,0,.4.019,2.279,2.279,0,0,1,.651-.128,6.334,6.334,0,0,0,1.021-.184,10.439,10.439,0,0,0,1.69-.73,1.2,1.2,0,0,1,.351-.16,5.31,5.31,0,0,0,.766-.177,1.661,1.661,0,0,1,1.226.271c.207.1.314.353.5.464.43.249.8.584,1.246.812a2.691,2.691,0,0,0,1.047.453.258.258,0,0,1,.135.07,3.345,3.345,0,0,1,.462.532,2.6,2.6,0,0,1,.489.711,2.7,2.7,0,0,0,.585,1.079,4.256,4.256,0,0,1,.491.766l.008.014a.079.079,0,0,1-.006-.015C166.813,103.842,166.931,103.661,166.974,103.482Z" transform="translate(-90.197 -57.682)"/><path class="b" d="M167.546,65.068c.206.117.383-.022.551-.092a4.776,4.776,0,0,1,.766-.151c.051-.011.13.008.137.081s-.039.08-.109.085a3.156,3.156,0,0,0-1,.275c-.128.083-.1.232-.176.339-.034.051.084.082.145.116a1.009,1.009,0,0,0,.537.18.168.168,0,0,1,.158.1c.039.168.161.279.166.468a6.384,6.384,0,0,1,0,1,1.72,1.72,0,0,1-.179.74,4.183,4.183,0,0,1-.8,1.14.415.415,0,0,0-.092.131.092.092,0,0,0,.009.114c.049.041.089.009.128-.023l.44-.422c.069-.066.152-.117.24-.068s.093.147.068.25a1.2,1.2,0,0,1-.424.665,1.539,1.539,0,0,0-.252.268,2.858,2.858,0,0,1-.521.45c-.032.028-.055.062-.083.089-.07.084-.139.241-.308.142a.109.109,0,0,0-.107.023c-.222.231-.567.319-.7.65a.1.1,0,0,1-.078.049c-.042,0-.045-.063-.052-.093-.029-.1-.084-.136-.19-.068a1.232,1.232,0,0,0-.458.453c-.063.128-.19.041-.226-.031-.134-.232-.373-.383-.461-.651a2.511,2.511,0,0,1-.087-1.438,1.8,1.8,0,0,1,.153-.534,3.558,3.558,0,0,1,.482-.721,1.7,1.7,0,0,0,.179-.231c.194-.255.511-.424.605-.744a.789.789,0,0,1,.638-.54,1.216,1.216,0,0,0,.662-.706.66.66,0,0,0-.015-.412.088.088,0,0,0-.091-.077c-.054,0-.066.064-.059.1.065.34-.171.54-.359.722a1.086,1.086,0,0,1-.667.242c-.282.036-.55.128-.828.177a1.436,1.436,0,0,0-.549.181.156.156,0,0,1-.207-.02c-.059-.063-.023-.1.023-.187.016-.039.038-.047.045-.074.017-.081.081-.139.03-.232-.024-.029-.052-.081-.085-.059a.244.244,0,0,0-.128.208c0,.047-.013.1-.066.116a.131.131,0,0,1-.079-.042.11.11,0,0,1-.01-.151,1.73,1.73,0,0,1,.6-.61,1.241,1.241,0,0,0,.6-.784c.067-.246.386-.489.615-.347a2.1,2.1,0,0,0,1.06.1c.1,0,.071-.094.1-.147.1.106.208-.049.314-.008Zm-1.461,1c.213,0,.366-.186.573-.226.06-.011.116-.04.111-.107s-.071-.084-.128-.094a.765.765,0,0,1-.217-.041.788.788,0,0,0-.819.225c-.166.165-.265.43-.539.468-.06.008-.072.069-.063.128s.05.069.1.074a.277.277,0,0,0,.175-.082c.237-.191.453-.429.805-.345Z" transform="translate(-102.199 -30.433)"/><path class="b" d="M235.019,126.12c-.082-.011-.106-.1-.144-.152a3.181,3.181,0,0,1-.511-1.961,4.619,4.619,0,0,0-.263-1.433.3.3,0,0,0-.214-.2c-.281-.092-.511-.313-.775-.4-.461-.149-.661-.592-1.021-.827s-.583-.616-1.02-.7c-.059-.011-.121-.047-.11-.131s.071-.07.128-.079a1.283,1.283,0,0,1,1.216.463,10.417,10.417,0,0,0,.893.694,1.661,1.661,0,0,0,.686.463c.308.073.557.276.854.361.123.028.143.148.135.258-.02.459-.043.916-.058,1.374a2.037,2.037,0,0,0,.127.811.247.247,0,0,1-.027.235.6.6,0,0,0,.262.836C235.222,125.913,235.212,126.06,235.019,126.12Z" transform="translate(-160.409 -78.766)"/><path class="b" d="M141.266,119.306c-.374-.009-.631.263-.911.448-.336.22-.618.53-1.059.511a.315.315,0,0,0-.255.156c-.273.4-.683.676-.961,1.075a.226.226,0,0,1-.075.064.48.48,0,0,0-.248.451,2.5,2.5,0,0,1-.061.4c-.024.112-.047.226-.068.341l-.031.172-.019.108a.035.035,0,0,0,0,.011.018.018,0,0,0,.009.01.12.12,0,0,0,.029.013.128.128,0,0,0,.033.014.222.222,0,0,0,.1-.024l.111-.036.214-.069c.018,0,.022-.022.028-.037a.1.1,0,0,0,0-.029.146.146,0,0,0-.022-.053.632.632,0,0,1-.035-.1,1.149,1.149,0,0,1-.028-.22c-.01-.177.138-.238.2-.364a5.222,5.222,0,0,1,.275-.732,1.405,1.405,0,0,1,.39-.361c.24-.173.374-.494.714-.522.017,0,.036-.022.05-.034a1.324,1.324,0,0,1,.845-.324c.3-.041.6-.034.9-.047a.411.411,0,0,0,.374-.342c0-.157-.362-.478-.5-.481Z" transform="translate(-78.945 -77.962)"/><path class="b" d="M194.325,67.18c-.078-.026-.227,0-.255-.1-.019-.064.128-.114.218-.128.265-.063.534-.114.8-.165a.255.255,0,0,0,.181-.119c.046-.075.094-.036.135.008s.055.111-.009.128C195.041,66.915,194.741,67.189,194.325,67.18Z" transform="translate(-128.226 -32.005)"/><path class="h" d="M277.741,106.19v0l.006,0Z" transform="translate(-202.441 -66.961)"/><path class="f" d="M171.332,71.081c-.352-.084-.568.153-.8.343a.277.277,0,0,1-.175.082c-.051,0-.094-.015-.1-.074s0-.119.065-.128c.273-.038.373-.3.539-.468a.794.794,0,0,1,.819-.225.766.766,0,0,0,.217.041c.054.01.12.029.128.094s-.051.1-.111.107C171.7,70.9,171.547,71.084,171.332,71.081Z" transform="translate(-107.446 -35.443)"/><path class="b" d="M100.812,95.98l-.128-7.3.383-1.238L99.825,87.2l-.984.383a2.119,2.119,0,0,0,.542,1.1L99.3,95.957Z" transform="translate(-45.153 -49.952)"/><path class="c" d="M148.134,63.349l-.023-.092c.006-.009.014-.01.023,0Z" transform="translate(-88.135 -29.062)"/><path class="d" d="M120.84,97.67h0Z" transform="translate(-65.567 -59.529)"/><path class="i" d="M72.381,41.706v-.374l-.023-.092a1.138,1.138,0,0,0-1.338-1.149c-.244.01-.383,0-.429-.3a.992.992,0,0,0-.24-.421,2.1,2.1,0,0,0-1.64-.661c-.056,0-.112.019-.16-.05a1.173,1.173,0,0,0-.7-.453c-.766-.209-1.584-.4-2.188.272a1.718,1.718,0,0,1-1.149.567c-.56.086-1.224.226-1.316.924-.068.519-.285.6-.693.7a1.482,1.482,0,0,0-1.224,1.264,1.659,1.659,0,0,0,.835,1.638l.23.107a1.737,1.737,0,0,0,1.082,2.042,3.559,3.559,0,0,1,.766.186,2.82,2.82,0,0,0,1.384.345.746.746,0,0,1,.777.854c-.02.581-.054,1.16-.08,1.74l.008.014h-.009q-.094,1.922-.186,3.846c-.013.277.087.47.383.488.333.022.669.028,1,.04l.3.024h.181l.109-.031c.317-.1.19-.327.163-.542a61.513,61.513,0,0,1-.22-6.585,2.21,2.21,0,0,0,.968.056c.728-.091,1.432-.223,1.775-1.021.015-.034.071-.05.11-.071.865-.5,1.31-1.1.915-2.1a.084.084,0,0,1,.015-.108A2,2,0,0,0,72.381,41.706Zm-6.254-3.042a2.267,2.267,0,0,1,1.931.248.535.535,0,0,1,.212.528c-.009.092-.073.1-.144.052a1.949,1.949,0,0,0-2.365.212,1.354,1.354,0,0,0-.017-.191c-.1-.371-.092-.7.379-.849Zm-.308,2.448a.225.225,0,0,0,.027-.186c-.191-.66.015-1,.68-1.149a2.285,2.285,0,0,1,1.459.1c.416.19.355.582.3.95-.013.082-.02.144.06.18s.094-.045.128-.091a.891.891,0,0,0,.07-.893.54.54,0,0,1,.156-.6.638.638,0,0,1,.569-.137c.328.064.475.4.747.511.383.153.3.433.3.738,0,.37-.194.4-.456.383s-.5-.017-.751-.02c-.057,0-.149-.027-.147.078,0,.082.073.1.144.1a1.076,1.076,0,0,1,.957.518.8.8,0,0,1,.139.9.893.893,0,0,1-.924.5,1.156,1.156,0,0,1-.638-.116c-.228-.07-.245.075-.269.237a1.021,1.021,0,0,1-.964.864,2.341,2.341,0,0,1-.976-.147.465.465,0,0,1-.318-.444c-.014-.117-.052-.255-.2-.216s-.147.183-.128.3a1.394,1.394,0,0,0,.6.766c.055.043.19.068.157.128a.434.434,0,0,1-.268.186,1.153,1.153,0,0,1-1.183-.236.878.878,0,0,1-.16-1.105c.1-.147.024-.2-.106-.234-.286-.064-.588-.093-.712-.443a1.2,1.2,0,0,1,.171-1.222,1.15,1.15,0,0,1,1.347-.2.191.191,0,0,0,.183-.005Zm-4,1.063c0-.693.294-.969,1.122-1.1A3.05,3.05,0,0,1,63.676,41c.255.023.071-.213.042-.282a.841.841,0,0,1,.747-1.2c.255,0,.511-.015.758-.024a.393.393,0,0,1,.383.535,1.239,1.239,0,0,0-.091.394c.008.332-.2.245-.365.246-1.149.014-1.482.486-1.393,1.575a.906.906,0,0,0,.144.476c.033.047.042.108-.009.138a2.514,2.514,0,0,1-.854.445C62.355,43.406,61.831,43.04,61.817,42.175Zm2.611,2.936a1.478,1.478,0,0,1-1.5-.4.923.923,0,0,1-.11-.574c-.111-.438.265-.523.572-.642.128-.051.3-.091.361-.2.189-.331.43-.255.684-.139.165.075.22.181.114.375a.832.832,0,0,0,.055.9.451.451,0,0,1-.171.687Zm1.132.669c-.216-.087-.53.046-.776-.208-.091-.094-.041-.147-.017-.2.128-.271.255-.553.628-.457.322.083.675.152.654.606-.014.271-.239.267-.489.267Zm2.186-.752a.983.983,0,0,0-.112.226,1.672,1.672,0,0,0-.027.2c-.014.117-.032.236-.042.355-.015.167-.027.333-.034.5-.015.334-.019.669-.018,1s.009.669.014,1c0,.255.008.5.006.748,0,.893.111,1.795.137,2.694.01.351.022.707.043,1.059a.128.128,0,0,1-.144.157c-.262,0-.523.013-.785.017a.1.1,0,0,1-.034,0,.092.092,0,0,1-.032-.027.415.415,0,0,1-.083-.239,2.084,2.084,0,0,1-.022-.309,7.079,7.079,0,0,1,.077-.752c.028-.265.02-.534.023-.8,0-.491.032-.984.038-1.476,0-.429.011-.858.017-1.287V47.73c0-.14,0-.281-.006-.421,0-.221-.008-.44,0-.66,0-.134.014-.267.013-.4a.21.21,0,0,0-.008-.063.188.188,0,0,0-.019-.043,1.768,1.768,0,0,1-.1-.255l-.013-.038a3.218,3.218,0,0,0-.128-.3c-.05-.112-.1-.226-.147-.341a.213.213,0,0,0-.114-.128.1.1,0,0,1-.077-.119.143.143,0,0,1,.063-.094.226.226,0,0,1,.106-.038.128.128,0,0,1,.049,0c.059.017.115.108.149.157a1.2,1.2,0,0,1,.128.237,1.037,1.037,0,0,1,.04.1c.01.034.009.061.042.073.064.022.172.037.176-.063a.32.32,0,0,0-.023-.1c-.024-.088-.057-.72.128-.676h.011a.16.16,0,0,1,.092.163c-.01.185,0,.374,0,.56,0,.027,0,.061.027.073a.074.074,0,0,0,.029,0,.51.51,0,0,0,.153,0,.128.128,0,0,0,.061-.094,2.425,2.425,0,0,1,.112-.383c.015-.1.032-.216.146-.236a.244.244,0,0,1,.175.05.066.066,0,0,1,.022.024.064.064,0,0,1,0,.041,1.057,1.057,0,0,1-.1.265Zm.011-.6c-.01,0-.037-.055-.038-.086,0-.065.048-.075.1-.094a1.165,1.165,0,0,0,.837-.893c.032-.157.186-.128.294-.079a1.321,1.321,0,0,0,.689.1c.064-.008.128-.046.177.023a.282.282,0,0,1,.015.236c-.138.638-.893.9-1.473.933-.2.04-.377-.165-.6-.137Zm2.583.359a1.617,1.617,0,0,1-1.38.925c-.216.033-.536-.077-.865-.078a.149.149,0,0,1-.094-.07c-.1-.17.175-.684.365-.691a1.767,1.767,0,0,0,1.276-.375,1.181,1.181,0,0,0,.1-.087c.086-.107.128-.286.318-.222a.457.457,0,0,1,.276.6Zm.632-.324c-.383.407-.334-.08-.419-.179a1.9,1.9,0,0,0-.4-.448c-.1-.061-.086-.148-.009-.23.026-.027.069-.068.063-.088-.119-.371.128-.587.323-.825.052-.064.1-.128.2-.091a.836.836,0,0,1,.687.974,1.142,1.142,0,0,1-.442.891Zm.68-1.952c-.042.079-.094.059-.151.027a6.083,6.083,0,0,0-.693-.377.3.3,0,0,1-.2-.306c-.009-.255-.269-.434-.2-.688a.577.577,0,0,1,.739-.475c.368.063.832.471.813.837a2.077,2.077,0,0,1-.309.987Z" transform="translate(-12.381 -7.044)"/><path class="c" d="M100.482,122.867l.008.014h-.009v-.009Z" transform="translate(-46.584 -81.069)"/><path class="d" d="M88.071,51.63a1.156,1.156,0,0,1-.638-.116c-.228-.07-.245.075-.269.237a1.021,1.021,0,0,1-.964.864,2.341,2.341,0,0,1-.976-.147.465.465,0,0,1-.318-.444c-.014-.117-.052-.255-.2-.216s-.147.183-.128.3a1.394,1.394,0,0,0,.6.766c.055.043.19.068.157.128a.434.434,0,0,1-.268.186,1.153,1.153,0,0,1-1.183-.236.878.878,0,0,1-.16-1.105c.1-.147.024-.2-.106-.234-.286-.063-.588-.093-.712-.443a1.2,1.2,0,0,1,.171-1.222,1.15,1.15,0,0,1,1.347-.2.191.191,0,0,0,.177,0,.225.225,0,0,0,.027-.186c-.191-.66.015-1,.68-1.149a2.285,2.285,0,0,1,1.459.1c.416.19.355.582.3.95-.013.082-.02.144.06.18s.094-.045.128-.091a.891.891,0,0,0,.07-.893.54.54,0,0,1,.165-.6.638.638,0,0,1,.569-.137c.328.064.475.4.747.511.383.153.3.433.3.738,0,.37-.194.4-.456.383s-.5-.017-.751-.02c-.057,0-.149-.027-.147.078,0,.082.073.1.144.1a1.076,1.076,0,0,1,.957.518.8.8,0,0,1,.139.9A.893.893,0,0,1,88.071,51.63Z" transform="translate(-31.175 -15.672)"/><path class="d" d="M65.531,52.349c0-.693.294-.969,1.122-1.1a3.05,3.05,0,0,1,.736-.077c.255.023.071-.213.042-.282a.841.841,0,0,1,.747-1.2c.255,0,.511-.015.758-.024a.393.393,0,0,1,.383.535,1.239,1.239,0,0,0-.091.394c.008.332-.2.245-.365.246-1.149.014-1.482.486-1.393,1.575a.906.906,0,0,0,.144.476c.033.047.042.108-.009.138a2.514,2.514,0,0,1-.854.445c-.684.1-1.207-.271-1.222-1.135Z" transform="translate(-16.095 -17.218)"/><path class="d" d="M73.2,78.606c-.111-.443.265-.528.572-.647.128-.051.3-.091.361-.2.189-.331.43-.255.684-.139.165.075.22.181.114.375a.832.832,0,0,0,.055.9.451.451,0,0,1-.171.687,1.478,1.478,0,0,1-1.5-.4A.923.923,0,0,1,73.2,78.606Z" transform="translate(-22.772 -41.512)"/><path class="d" d="M134.326,59.769a2.016,2.016,0,0,1-.3.987c-.042.079-.094.059-.151.027a6.083,6.083,0,0,0-.693-.382.3.3,0,0,1-.2-.306c-.009-.255-.269-.434-.2-.688a.577.577,0,0,1,.739-.475C133.881,59,134.346,59.4,134.326,59.769Z" transform="translate(-74.749 -25.281)"/><path class="d" d="M114.8,87.907c-.216.033-.536-.077-.865-.078a.149.149,0,0,1-.094-.07c-.1-.17.175-.684.365-.691a1.767,1.767,0,0,0,1.276-.375,1.182,1.182,0,0,0,.1-.087c.086-.107.128-.286.318-.222a.452.452,0,0,1,.271.6A1.613,1.613,0,0,1,114.8,87.907Z" transform="translate(-58.223 -49.232)"/><path class="d" d="M131.611,74.946a1.14,1.14,0,0,1-.442.886c-.383.407-.334-.08-.419-.179-.128-.151-.212-.355-.4-.448-.107-.052-.079-.135-.037-.213.055-.1,0-.234.027-.348a.952.952,0,0,1,.165-.291,3.226,3.226,0,0,1,.222-.29c.052-.064.1-.128.2-.091A.836.836,0,0,1,131.611,74.946Z" transform="translate(-72.577 -38.405)"/><path class="d" d="M95.977,43.4a1.355,1.355,0,0,0-.017-.191c-.1-.371-.087-.7.383-.848a2.262,2.262,0,0,1,1.931.246.535.535,0,0,1,.212.528c-.009.092-.073.1-.144.052A1.949,1.949,0,0,0,95.977,43.4Z" transform="translate(-42.599 -10.74)"/><path class="d" d="M112.419,80.341c-.2.04-.383-.165-.6-.137-.01,0-.037-.055-.038-.086,0-.065.048-.075.1-.094a1.165,1.165,0,0,0,.837-.893c.032-.157.186-.128.294-.079a1.321,1.321,0,0,0,.689.1c.064-.008.128-.046.177.023a.282.282,0,0,1,.015.236C113.754,80.053,113,80.313,112.419,80.341Z" transform="translate(-56.442 -42.813)"/><path class="d" d="M89.2,92.854c-.216-.087-.53.046-.776-.208-.091-.094-.041-.147-.017-.2.128-.271.255-.553.628-.457.322.083.675.152.654.606C89.675,92.858,89.45,92.854,89.2,92.854Z" transform="translate(-36.021 -54.113)"/><path class="c" d="M103.784,143.687v.218C103.781,143.833,103.782,143.76,103.784,143.687Z" transform="translate(-49.464 -99.232)"/><path class="d" d="M110.851,95.274l.027-.237Z" transform="translate(-55.631 -56.791)"/><path class="d" d="M111.4,94h0Z" transform="translate(-56.102 -55.883)"/><path class="d" d="M120.814,97.654h0l0,0Z" transform="translate(-65.541 -59.511)"/><path class="d" d="M118.583,98.808l0-.008h.006l.005.009Z" transform="translate(-63.596 -60.515)"/><path class="d" d="M111.569,93.631l-.008-.006.014-.008v.01Z" transform="translate(-56.25 -55.552)"/><path class="j" d="M101.754,370.093h0a20.9,20.9,0,0,0,16.1-7.546h-32.2A20.9,20.9,0,0,0,101.754,370.093Z" transform="translate(-33.647 -290.156)"/><g transform="translate(47.081 46.011)"><path class="j" d="M97.652,166.691c-.756-4.263-3.021-7.361-5.7-7.361s-4.943,3.093-5.7,7.361H83.923c-.754-4.263-3.02-7.361-5.7-7.361s-4.946,3.093-5.7,7.361H70.2c-.756-4.263-3.02-7.361-5.7-7.361s-4.945,3.093-5.7,7.361H57.16v1.915H99.026v-1.915Z" transform="translate(-57.096 -159.33)"/><line class="k" x2="41.738" transform="translate(0 7.483)"/></g><g transform="translate(53.644 56.562)"><path d="M116.075,256.243l-.349-.009a23.176,23.176,0,0,1-3.3-.277,3.439,3.439,0,0,1-1.065-.3.542.542,0,0,1-.28-.391.815.815,0,0,1,.039-.28q.307-1.16.687-2.3c.125-.383.26-.756.4-1.13a1.365,1.365,0,0,0,.142-.411c0-.148-.11-.263-.115-.408,0-.166.14-.294.193-.451a.647.647,0,0,0-.125-.564c-.173-.255-.39-.467-.545-.73a10.311,10.311,0,0,1-1.083-2.645,16.319,16.319,0,0,1-.455-2.739c-.044-.5-.351-1.858.1-2.239a.785.785,0,0,1,.327-.135l3-.749a6.231,6.231,0,0,1,2.867-.429,10.115,10.115,0,0,1,1.023.415,7.894,7.894,0,0,0,1.756.313,10.662,10.662,0,0,1,1.783.477.408.408,0,0,1,.284.177.422.422,0,0,1,.06.333,17.558,17.558,0,0,1-.281,3.561,16.5,16.5,0,0,1-1.214,3.363,7.517,7.517,0,0,0-.616,1.825c-.221,1.386.68,2.643.915,3.98a1.838,1.838,0,0,1,.011.721.723.723,0,0,1-.607.6,22.149,22.149,0,0,1-3.561.425Z" transform="translate(-110.081 -239.99)"/><path class="b" d="M169.759,247.692v.748c0,.249.014.515,0,.771,0-.012.094-.064.108-.076a.667.667,0,0,0,.207-.3.472.472,0,0,0-.08-.452.394.394,0,0,1-.138-.245,1.516,1.516,0,0,1,.017-.365.663.663,0,0,1,.061-.178c.02-.039.075-.1.063-.15s-.094-.08-.119-.1-.078-.086-.1-.087-.026.064-.026.1c.009.11.009.218.009.327Z" transform="translate(-162.134 -246.334)"/><path class="b" d="M146.973,299.673c0-.128,0-.255-.185-.162a2.892,2.892,0,0,0-.511.269,1.381,1.381,0,0,0-.564.757,2.46,2.46,0,0,0-.018.435c0,.1.043.255-.128.249s-.087-.165-.083-.255a1.085,1.085,0,0,0-.969-1.3c-.1-.026-.156.006-.176.1a1.9,1.9,0,0,0,.454,1.087,1.071,1.071,0,0,1,.573.766c.028.232.026.468.037.7h-.014v.375c0,.092.029.176.142.174s.144-.087.146-.176a2.553,2.553,0,0,0-.022-.5,1.33,1.33,0,0,1,.654-1.454A1.259,1.259,0,0,0,146.973,299.673Z" transform="translate(-139.963 -291.886)"/><path class="b" d="M165.294,336.206c-.02-.239-.07-.476-.107-.712s-.1-.466-.149-.7c-.054-.255-.109-.511-.156-.773a.079.079,0,0,1,0-.009,6.027,6.027,0,0,0-.309-1.172l-.029.014-.046.024c-.128.065-.23.128-.2.305.056.309.115.618.16.928.014.1.027.207.038.311.074.7.121,1.4.177,2.093a.176.176,0,0,0,.239.176c.134-.038.332,0,.371-.208a1,1,0,0,0,.014-.128.128.128,0,0,1,0-.022v-.116A.086.086,0,0,1,165.294,336.206Z" transform="translate(-157.374 -320.989)"/><path class="b" d="M164.642,301.635a.1.1,0,0,0-.128-.128,2.116,2.116,0,0,0-1.3.712,3.769,3.769,0,0,0-.377,1.319c-.073.255.078.454.108.68l.015.225c0,.065,0,.148.079.156s.111-.082.117-.147a1.288,1.288,0,0,0,0-.343,1.1,1.1,0,0,1,.659-1.29A1.628,1.628,0,0,0,164.642,301.635Z" transform="translate(-156.085 -293.652)"/><path class="b" d="M169.485,252.8a4.8,4.8,0,0,1,.5-.246c.443-.139.939-.255,1.063-.809a8.577,8.577,0,0,0,.157-1.006c.046-.47.071-.943.1-1.416.009-.191.128-.4-.063-.573-.1.026-.1.1-.1.17q0,.689-.059,1.376a2.128,2.128,0,0,1-.038.255,1.736,1.736,0,0,1-.32.715,3.013,3.013,0,0,1-.816.585c-.278.175-.5.362-.5.7C169.415,252.575,169.451,252.818,169.485,252.8Z" transform="translate(-161.837 -247.632)"/><path class="b" d="M158.688,334.544c-.014-.1-.034-.281-.2-.268-.138.01-.137.144-.137.255v1.69h0c.014.243.054.486.074.726s.042.511.059.772c.011.185.106.3.313.277.188-.02.318-.083.313-.311a5.79,5.79,0,0,0-.18-1.257,17.227,17.227,0,0,1-.24-1.884Z" transform="translate(-152.189 -322.24)"/><path class="b" d="M170.406,332.392c-.061-.176-.185-.154-.294-.147-.128.009-.137.128-.115.234.045.212.128.417.181.618.119.463.237.927.318,1.4q.061.354.088.712a3.585,3.585,0,0,0,.051.673.2.2,0,0,0,.078.128c.119.07.291-.078.406-.1a.069.069,0,0,0,.028-.011.066.066,0,0,0,.009-.022,2.876,2.876,0,0,0-.153-1.23,17.3,17.3,0,0,0-.6-2.255Z" transform="translate(-162.342 -320.465)"/><path class="b" d="M176.645,329.713a.383.383,0,0,0-.31.011,1.515,1.515,0,0,0,.1.766,7.582,7.582,0,0,1,.383,1,7.244,7.244,0,0,1,.223,1.915c0,.074.031.152.107.128.171-.063.375-.135.4-.336a2.4,2.4,0,0,0-.027-.7A16.857,16.857,0,0,0,176.645,329.713Z" transform="translate(-167.867 -318.237)"/><path class="b" d="M135.652,333.72c-.135-.047-.23.107-.327.213-.17.186-.146.429-.227.638a15.089,15.089,0,0,0-.5,2.269c.019.071.038.153.065.234.043.128.071.3.255.283s.188-.188.2-.329a5.914,5.914,0,0,1,.365-1.977,8,8,0,0,0,.226-.973C135.744,333.942,135.823,333.779,135.652,333.72Z" transform="translate(-131.47 -321.749)"/><path class="b" d="M150.952,335.6c-.023-.171.1-.453-.188-.451s-.146.278-.158.435c-.079.961-.148,1.922-.216,2.885-.019.255.163.336.373.348s.255-.143.255-.322c0-.9.014-1.8-.065-2.7A1.423,1.423,0,0,0,150.952,335.6Z" transform="translate(-145.244 -323.004)"/><path class="b" d="M156.47,246.851c-.024.649.18,1.357-.467,1.845-.227.17-.412.4-.638.583a.593.593,0,0,0-.228.7c.1.268.285-.017.43,0h.015a1.589,1.589,0,0,0,.736-.551,2.279,2.279,0,0,0,.267-1.18c0-.448,0-.9.011-1.345,0-.224.013-.449.01-.666a.95.95,0,0,0-.073-.366.783.783,0,0,1-.064-.173C156.418,246.074,156.489,246.463,156.47,246.851Z" transform="translate(-149.351 -244.964)"/><path class="b" d="M142.608,334.763c-.153.032-.162.193-.186.319-.059.318-.089.638-.174.952a15.631,15.631,0,0,0-.338,1.941c.057.134,0,.383.273.383s.3-.186.313-.4a8.844,8.844,0,0,1,.052-.9,4.762,4.762,0,0,1,.208-1.338,2.7,2.7,0,0,0,.078-.619C142.857,334.952,142.913,334.7,142.608,334.763Z" transform="translate(-137.847 -322.658)"/><path class="b" d="M126.812,264.524a6.3,6.3,0,0,0,.2,1.7,1.245,1.245,0,0,0,.818.922c.167.073.346.128.527.186a1.237,1.237,0,0,0-.848-1.4.53.53,0,0,1-.163-.128,1.759,1.759,0,0,1-.415-1.007.736.736,0,0,0-.1-.4.807.807,0,0,0-.027.124Z" transform="translate(-124.67 -261.284)"/><path class="b" d="M129.639,332.388c.017-.063.033-.148-.064-.175-.069-.019-.142-.009-.16.07-.079.354-.366.6-.456.959a11.53,11.53,0,0,0-.449,2.23,1.673,1.673,0,0,0,0,.24c.018.128.119.161.228.176.06.009.116,0,.128-.069a6.988,6.988,0,0,1,.277-1.525c.106-.265.068-.565.184-.844A8.521,8.521,0,0,0,129.639,332.388Z" transform="translate(-126.154 -320.435)"/><path class="b" d="M168.588,280.2a6.572,6.572,0,0,0,.828-.295,1.093,1.093,0,0,0,.669-.675.717.717,0,0,0-.019-.61c-.324.162-.613.336-.922.453-.474.181-.788.447-.726,1.006C168.432,280.208,168.469,280.219,168.588,280.2Z" transform="translate(-160.965 -273.689)"/><path class="b" d="M170.085,250.17a.775.775,0,0,0,.563-.545,5.853,5.853,0,0,0,.214-1.967.222.222,0,0,0-.117-.228,1.168,1.168,0,0,0-.063.295v.332a2.084,2.084,0,0,1-.107.535,1.564,1.564,0,0,1-.073.209,2.573,2.573,0,0,1-.679.729,1.371,1.371,0,0,0-.326.434.716.716,0,0,0-.031.531C169.475,250.5,170.02,250.183,170.085,250.17Z" transform="translate(-161.855 -246.48)"/><path class="b" d="M185.866,252.93a.185.185,0,0,0-.1.172c-.051.4-.084.8-.175,1.206-.142.632-.7.831-.964,1.3a1.149,1.149,0,0,0-.217.472c-.008.111.037.144.148.094a1.682,1.682,0,0,1,.5-.19c.406-.036.5-.365.611-.638a4.034,4.034,0,0,0,.211-1.37A3.553,3.553,0,0,0,185.866,252.93Z" transform="translate(-174.926 -251.278)"/><path class="b" d="M146.047,246.959a2.824,2.824,0,0,1,.419.309,1.431,1.431,0,0,0-.281-1.125,1.91,1.91,0,0,1-.377-1.25,3.866,3.866,0,0,0-.07-1.214,6.741,6.741,0,0,0-.168,1.973C145.575,246.149,145.481,246.684,146.047,246.959Z" transform="translate(-141.037 -243.209)"/><path class="b" d="M130.066,250.128c.093.454-.063.952.373,1.333a5.283,5.283,0,0,0,.674.56.89.89,0,0,0-.2-1,1.441,1.441,0,0,1-.684-1,12.052,12.052,0,0,1-.087-1.555c0-.074-.013-.143-.1-.151-.064.031-.057.085-.05.129C130.075,249.01,129.952,249.569,130.066,250.128Z" transform="translate(-127.443 -247.254)"/><path class="b" d="M123.255,330.3c.017-.057.034-.116.054-.174s.027-.084.042-.128l.056-.156.042-.112c.036-.089.073-.179.114-.267a.14.14,0,0,0-.093-.218,11.986,11.986,0,0,0-.691,1.543c-.052.12-.1.265-.148.4a3.635,3.635,0,0,0-.246.872,4.7,4.7,0,0,0-.079.48,1.239,1.239,0,0,0-.01.206v.043a.234.234,0,0,0,.057.188c.032.071.065.094.1.089.037.027.074.054.107.082.1-.128.063-.306.115-.479l.008-.023a.485.485,0,0,1,.1-.165,3.548,3.548,0,0,1,.128-.611c.094-.5.19-1,.331-1.495Z" transform="translate(-120.734 -317.855)"/><path class="b" d="M183.939,278.809c-.149-.093-.264.069-.383.16a1.944,1.944,0,0,1-.336.218,1.25,1.25,0,0,0-.42,1.2c.4-.1.828-.139,1.021-.586a2.46,2.46,0,0,0,.193-.559C184.029,279.1,184.079,278.9,183.939,278.809Z" transform="translate(-173.483 -273.83)"/><path class="b" d="M142.618,248.468c.014.007.015.042.031.053a1.892,1.892,0,0,0,.623.389.961.961,0,0,0-.074-.723.852.852,0,0,0-.547-.431c-.106-.03-.23-.048-.283-.154a4.432,4.432,0,0,1-.273-2.186c.008-.366,0-.731,0-1.1-.075,0-.084.046-.086.089-.008.368-.06.732-.078,1.093a7.165,7.165,0,0,0,.06,1.259C142.07,247.376,141.841,248.137,142.618,248.468Z" transform="translate(-137.86 -243.763)"/><path class="b" d="M143.226,290.663c.285.243.7.243.953.563.207-.447-.086-1.4-.735-1.375a.746.746,0,0,1-.466-.171,1.006,1.006,0,0,0,.248.983Z" transform="translate(-138.733 -283.338)"/><path class="b" d="M129.065,285.89a1.139,1.139,0,0,0,.175,1.075c.336.3.831.231,1.206.585a1.551,1.551,0,0,0-.161-.831C130.018,286.232,129.4,286.278,129.065,285.89Z" transform="translate(-126.582 -280.031)"/><path class="b" d="M169.171,291.674c.04-.2.079-.408.12-.611-.595-.14-1.745.417-1.571,1.261C168.2,292.106,168.8,292.168,169.171,291.674Z" transform="translate(-160.347 -284.525)"/><path class="b" d="M143.7,279.127c.017-.226.042-.4.037-.582a.434.434,0,0,0-.112-.313c-.341-.342-.893-.342-1.214-.842a1.586,1.586,0,0,0,.1,1.007C142.766,278.872,143.355,278.768,143.7,279.127Z" transform="translate(-138.259 -272.616)"/><path class="b" d="M156.746,278.15c-.268.324-.662.383-.959.6-.128.1-.366.087-.4.274a5.428,5.428,0,0,0-.009.781c.5-.3,1.029-.426,1.317-.9A.813.813,0,0,0,156.746,278.15Z" transform="translate(-149.591 -273.279)"/><path class="b" d="M155.435,291.128c.738.082,1.463-.67,1.243-1.276A1.106,1.106,0,0,0,155.435,291.128Z" transform="translate(-149.622 -283.486)"/><path class="b" d="M155.361,247.328a.026.026,0,0,0,.029,0,1.326,1.326,0,0,0,.859-.975,14.86,14.86,0,0,0,.065-2.466.09.09,0,0,0-.006-.042.049.049,0,0,0-.034-.02.048.048,0,0,0-.037.012.109.109,0,0,0-.033.075,11.934,11.934,0,0,0-.1,1.366c0,.608-.415,1.008-.662,1.48C155.408,246.82,155.3,247.264,155.361,247.328Z" transform="translate(-149.565 -243.334)"/><path class="b" d="M151.213,243.829a1.35,1.35,0,0,0-.115.417c-.008.2.167.713.389.662.138-.031.327-.307.4-.43a.587.587,0,0,0-.009-.488,5.645,5.645,0,0,1-.241-.645,2.259,2.259,0,0,1-.014-.669,2.723,2.723,0,0,0-.075-.583.255.255,0,0,0-.086.175q-.021.286-.014.573A4.075,4.075,0,0,1,151.213,243.829Z" transform="translate(-145.863 -241.825)"/><path class="b" d="M136.46,307.921c-.245-.221-.594-.2-.883-.32-.083-.036-.084.069-.06.135a1.052,1.052,0,0,0,.706.724.28.28,0,0,1,.185.2,1.634,1.634,0,0,1,.074.92c.019.116-.027.262.106.269s.092-.14.1-.223c.02-.338.01-.68.049-1.021A.766.766,0,0,0,136.46,307.921Z" transform="translate(-132.258 -298.964)"/><path class="b" d="M174.3,307.321c.112.2.214-.18.214-.246a3.261,3.261,0,0,1,.029-.461.271.271,0,0,1,.163-.255,1.077,1.077,0,0,0,.793-.971c0-.06.01-.128-.065-.128a.915.915,0,0,0-.711.276,2.761,2.761,0,0,0-.415.773,3.453,3.453,0,0,0-.024.919A.181.181,0,0,0,174.3,307.321Z" transform="translate(-166.074 -296.929)"/><path class="b" d="M118.309,284.01c-.008-.034-.024-.07-.036-.107a3.033,3.033,0,0,1-.063-.338,1.163,1.163,0,0,0-1.038-.85.255.255,0,0,0-.128.015.142.142,0,0,0-.075.128c0,.116.14.255.18.371a1.021,1.021,0,0,0,.184.407.817.817,0,0,0,.383.186c.137.04.255.1.393.147A.926.926,0,0,0,118.309,284.01Z" transform="translate(-116.091 -277.259)"/><path class="b" d="M121.722,295.1a1.362,1.362,0,0,0-1.118-1.312c-.087,0-.1.045-.088.116C120.637,294.48,120.846,295.015,121.722,295.1Z" transform="translate(-119.179 -286.923)"/><path class="b" d="M180.95,292.292l-.255.1a1.151,1.151,0,0,0-.542.677c-.037.091-.225.511.014.5a.326.326,0,0,0,.1-.027,1.924,1.924,0,0,0,.466-.171,1.149,1.149,0,0,0,.308-.342.92.92,0,0,0,.128-.826C181.1,292.232,181.024,292.261,180.95,292.292Z" transform="translate(-171.117 -285.536)"/><path class="b" d="M127.691,308.365a1.192,1.192,0,0,0,.041-.893,1.8,1.8,0,0,0-1.246-1.021,1.419,1.419,0,0,0,.576.933c.228.12.416.255.408.563C127.466,308.1,127.443,308.3,127.691,308.365Z" transform="translate(-124.39 -297.967)"/><path class="b" d="M133,299.385c-.1-.546-.361-.966-1.4-1.075C131.571,299.008,132.212,299.326,133,299.385Z" transform="translate(-128.849 -290.866)"/><path class="b" d="M186.378,250.745a.681.681,0,0,1-.184-.577v-.781c0-.092.042-.2-.092-.317a10.955,10.955,0,0,1-.232,2.589.921.921,0,0,1,.162-.06C186.37,251.551,186.627,250.976,186.378,250.745Z" transform="translate(-176.196 -247.911)"/><path class="b" d="M136.281,248.571a14.12,14.12,0,0,0-.073-2.7c-.009.214-.008.342-.022.467a3.273,3.273,0,0,1-.2,1.412A.615.615,0,0,0,136.281,248.571Z" transform="translate(-132.626 -245.124)"/><path class="b" d="M137.173,321.82a2.532,2.532,0,0,1-.893.493,5.568,5.568,0,0,1-.83.2,5.047,5.047,0,0,1-.676.111,11.193,11.193,0,0,1-2.1-.028,2.826,2.826,0,0,1-1.4-.554.326.326,0,0,0-.265-.1c-.211.065-.034.333.071.4a4.243,4.243,0,0,0,1.659.571,8.025,8.025,0,0,0,3.616-.232C136.663,322.588,137.51,322.292,137.173,321.82Z" transform="translate(-128.249 -311.375)"/><path class="b" d="M158.4,314.768a.176.176,0,0,0-.1-.1,3.516,3.516,0,0,0-.1.61,2.913,2.913,0,0,0,.054.614.128.128,0,0,0,.156.106c.084-.024.069-.106.065-.166-.009-.185-.019-.37-.031-.554l-.019-.283A.626.626,0,0,0,158.4,314.768Z" transform="translate(-152.055 -305.137)"/><path class="b" d="M147.8,315.922a.165.165,0,0,0-.087-.112.584.584,0,0,0-.046.128,2.111,2.111,0,0,0-.137.864c.009.064,0,.128.091.144a.12.12,0,0,0,.152-.1,1.421,1.421,0,0,0,.045-.4,2.615,2.615,0,0,1-.023-.374.476.476,0,0,0,.005-.151Z" transform="translate(-142.738 -306.132)"/><path class="b" d="M125.512,251.067a2.1,2.1,0,0,1,.036-.45c.01-.169.017-.339.014-.507a1.745,1.745,0,0,0-.094-.813.8.8,0,0,0-.12.636C125.47,250.293,125.424,250.7,125.512,251.067Z" transform="translate(-123.376 -248.109)"/><path class="b" d="M190.866,251.327c-.071-.411.119-.791-.014-1.207C190.646,250.308,190.647,251.195,190.866,251.327Z" transform="translate(-180.41 -248.827)"/><path class="b" d="M150.029,243.629a1.208,1.208,0,0,0-.055-.485c-.073-.178-.128-.176-.146.021-.013.162-.008.323-.015.485a2.123,2.123,0,0,0,.026.726C149.995,244.265,150.023,243.832,150.029,243.629Z" transform="translate(-144.726 -242.628)"/><path class="b" d="M168.512,316.318a.106.106,0,0,0-.013-.048.07.07,0,0,0-.057-.029c-.128,0-.128.235-.138.323-.019.128-.1.558.1.553.117,0,.128-.1.116-.2a.708.708,0,0,0-.006-.116C168.508,316.639,168.527,316.477,168.512,316.318Z" transform="translate(-160.843 -306.507)"/><path class="b" d="M174.237,247.63a2.164,2.164,0,0,0,.008,1.232C174.394,248.4,174.385,247.732,174.237,247.63Z" transform="translate(-165.971 -246.655)"/><path class="b" d="M158.315,242.8a2.976,2.976,0,0,0,.051,1.423A4.922,4.922,0,0,0,158.315,242.8Z" transform="translate(-152.103 -242.446)"/><path class="b" d="M139.135,316.844c-.008.094,0,.189.1.191.168,0,.1-.416.083-.534-.01-.084-.008-.309-.116-.311a.056.056,0,0,0-.047.028.1.1,0,0,0-.011.047c-.013.154,0,.311,0,.466C139.14,316.768,139.137,316.8,139.135,316.844Z" transform="translate(-135.425 -306.464)"/><path class="b" d="M114.7,256.285a1.533,1.533,0,0,1,.5.219c.111.056.156.018.148-.109a1.367,1.367,0,0,0-.216-.545c-.255-.541-.823-.77-.965-1.5-.091-.468-.128-.928-.175-1.393a.222.222,0,0,0-.1-.2,4.524,4.524,0,0,0-.018,1.2,5.351,5.351,0,0,0,.211,1.58c.112.318.205.7.613.741Z" transform="translate(-113.362 -251.132)"/><path class="b" d="M119.982,252.858a1.1,1.1,0,0,1,.162.064,12.919,12.919,0,0,1-.234-2.78.384.384,0,0,0-.092.341c-.008.274,0,.558,0,.838a.761.761,0,0,1-.184.621C119.383,252.192,119.64,252.809,119.982,252.858Z" transform="translate(-118.327 -248.847)"/><path class="b" d="M117.845,253.407a1.789,1.789,0,0,0,.014-1.455A11.539,11.539,0,0,0,117.845,253.407Z" transform="translate(-116.824 -250.426)"/><path class="b" d="M133.817,246.612a3.035,3.035,0,0,0,.008,1.463A2.331,2.331,0,0,0,133.817,246.612Z" transform="translate(-130.71 -245.767)"/></g><g transform="translate(72.75 56.503)"><path class="e" d="M270.016,254.282l-.314,2.853-.313.407-2.6.126-2.382-.282-.282-.91.407-1.975-4.42.094.345-1.819,1.253-3.2,1.976-3.135,2.821-3.354,1.317-1.16.314.251,1.473,4.169.377,3.01Z" transform="translate(-259.81 -241.623)"/><path d="M266.338,255.721c-1.306-.046-2.613-.119-3.919-.128-.646,0-.671-.383-.605-.827.094-.638.223-1.276.338-1.927a29,29,0,0,1-4.024-.214c-.317-.05-.426-.151-.332-.511a24.7,24.7,0,0,1,3.871-8.184,25.146,25.146,0,0,1,3.529-3.889c.166-.149.539-.613.745-.5.237.135.471.728.6.965a12.777,12.777,0,0,1,1.261,3.927,32.148,32.148,0,0,1,.433,4.6v1.779a23.383,23.383,0,0,1-.144,2.562c-.142.881.4,2.17-1.179,2.345Zm-.158-.3c.974.019,1.37-.341,1.419-1.261.068-1.218.188-2.433.216-3.65a21.989,21.989,0,0,0-1.625-9.47c-.077-.167-.268-.844-.537-.647a15.334,15.334,0,0,0-2.06,2,26.451,26.451,0,0,0-2.9,3.811,16.36,16.36,0,0,0-1.335,2.671c-.186.463-.36.933-.526,1.4-.148.424-.361.845-.47,1.276-.069.281.07.433.348.493a12.217,12.217,0,0,0,3.838.142.364.364,0,0,1,.189.011c.22.094-.022.479-.066.618a6.49,6.49,0,0,0-.169.66c-.093.475-.383,1.506.255,1.681A11.23,11.23,0,0,0,266.18,255.422Z" transform="translate(-257.764 -239.525)"/><path d="M321.863,255.5a21.427,21.427,0,0,1-.208,4,1.706,1.706,0,0,1-.4.87c-.032.036-.083.07-.121.042a.1.1,0,0,1-.031-.066,1.669,1.669,0,0,1,.054-.6,26.084,26.084,0,0,0,.305-3.61,21.053,21.053,0,0,0-.083-3.206,28.652,28.652,0,0,0-.546-3.007c-.02-.093-.083-.294.029-.352a.766.766,0,0,1,.181.411c.091.458.171.919.264,1.378a21.747,21.747,0,0,1,.553,4.137Z" transform="translate(-312.754 -248.288)"/></g><g transform="translate(66.467 56.311)"><path class="e" d="M212.73,244.12l.251.064.982,2.466.962,5.746.48,6.981-1.149.063-2.049-.1.209-4.013-1.547.961,1.3-7.21Z" transform="translate(-210.573 -243.341)"/><path d="M212.885,254.245c-.822-.019-1.644-.041-2.466-.059a.591.591,0,0,1-.59-.715c.116-1,.214-2.012.323-3.052l-1.612.8a116.21,116.21,0,0,0,2.042-13.2c.05.077.107.157.156.243a18.547,18.547,0,0,1,1.867,5.233,46.3,46.3,0,0,1,1,8.755c.006.206.02.41.031.614,0,.412,0,.823-.006,1.234a.213.213,0,0,1-.144.144C213.287,254.256,213.085,254.245,212.885,254.245Zm-.329-7.482c-.161-1.188-.36-2.37-.572-3.559-.116-.648-.244-1.3-.4-1.935-.08-.319-.168-.638-.268-.95-.071-.226-.146-.717-.357-.846a.165.165,0,0,0-.052.1c-.049.491-.078.985-.142,1.474-.2,1.532-.364,3.071-.623,4.6s-.617,3.054-.929,4.581a1.036,1.036,0,0,0,0,.2c0-.014.486-.291.532-.323.174-.117.341-.244.511-.371.119-.092.394-.4.458-.1a7.173,7.173,0,0,1-.013,1.678c-.036.8-.147,1.6-.142,2.393a.271.271,0,0,0,.059.2.255.255,0,0,0,.119.054,3.805,3.805,0,0,0,1.56.071c.364-.06.742-.068.721-.531-.048-1.09-.051-2.183-.111-3.273C212.835,249.062,212.714,247.911,212.556,246.763Z" transform="translate(-208.54 -238.02)"/></g></g></svg>